<?xml version="1.0" encoding="utf-8"?>
<!DOCTYPE svg PUBLIC "-//W3C//DTD SVG 1.1//EN" "http://www.w3.org/Graphics/SVG/1.1/DTD/svg11.dtd">
<svg version="1.1" xmlns="http://www.w3.org/2000/svg" xmlns:xlink="http://www.w3.org/1999/xlink" x="0px" y="0px" width="1356px"
	 height="1648px" viewBox="0 0 1356 1648" enable-background="new 0 0 1356 1648" xml:space="preserve">
<g id="icon_dictonary">
	<path fill="#FFE2C2" d="M1170.369,1376c0-51.915,7.631-94,14.631-94v-17H409.097c-132.368,0-239.672,49.696-239.672,111
		s107.305,111,239.672,111H1185v-17C1178,1470,1170.369,1427.915,1170.369,1376z"/>
	<path fill="#8C6239" d="M203.085,1272.044c37.01-25.543,87.764-39.044,146.772-39.044H350V145h-0.142
		c-59.009,0-109.762,13.501-146.772,39.044c-34.415,23.751-54.737,56.504-58.085,93.115v1079.43c0,1.172,0.221,2.271,0.611,3.267
		C150.359,1325.391,170.341,1294.643,203.085,1272.044z"/>
	<path fill="#C69C6D" d="M1188.449,145H350v1088h849V152.053C1199,147.776,1194.049,145,1188.449,145z"/>
	<path fill="#F9E9D9" stroke="#3D3D3D" stroke-width="13" stroke-miterlimit="10" d="M1105.5,542.996
		c0-8.006-4.186-12.496-12.946-12.496H485.805c-8.76,0-18.305,4.49-18.305,12.496v338.24c0,8.006,9.545,16.264,18.305,16.264
		h606.749c8.761,0,12.946-8.258,12.946-16.264V542.996z"/>
	<g>
		<path fill="#212121" d="M745.997,808.38c0.91,2.508,1.394,4.529,1.452,6.066c0.057,1.539-0.371,2.708-1.281,3.504
			c-0.913,0.799-2.422,1.309-4.529,1.538c-2.109,0.227-4.929,0.342-8.459,0.342c-3.533,0-6.353-0.085-8.459-0.257
			c-2.11-0.17-3.704-0.456-4.785-0.854c-1.085-0.398-1.881-0.94-2.393-1.624c-0.514-0.684-0.999-1.538-1.453-2.563l-18.97-53.833
			h-91.943l-18.115,53.149c-0.342,1.025-0.798,1.909-1.367,2.648c-0.571,0.743-1.396,1.367-2.478,1.881
			c-1.084,0.512-2.622,0.881-4.614,1.11c-1.995,0.227-4.587,0.342-7.776,0.342c-3.306,0-6.011-0.145-8.118-0.427
			c-2.109-0.286-3.589-0.825-4.443-1.624c-0.854-0.796-1.255-1.966-1.196-3.503c0.056-1.539,0.54-3.56,1.453-6.067l74.17-205.42
			c0.454-1.252,1.052-2.278,1.795-3.076c0.739-0.796,1.82-1.423,3.246-1.88c1.424-0.454,3.248-0.769,5.469-0.94
			c2.223-0.171,5.042-0.256,8.46-0.256c3.645,0,6.665,0.085,9.058,0.256s4.328,0.486,5.811,0.94
			c1.479,0.457,2.619,1.111,3.418,1.965c0.796,0.854,1.423,1.909,1.88,3.162L745.997,808.38z M650.807,627.057h-0.171
			l-38.11,110.229h76.904L650.807,627.057z"/>
		<path fill="#212121" d="M846.314,732.501c0,4.443-0.513,7.52-1.538,9.229s-2.508,2.563-4.443,2.563h-71.436
			c-2.051,0-3.589-0.881-4.614-2.649c-1.025-1.765-1.538-4.812-1.538-9.143c0-4.329,0.513-7.349,1.538-9.058
			s2.563-2.563,4.614-2.563h71.436c0.91,0,1.735,0.171,2.478,0.513c0.74,0.342,1.367,0.999,1.881,1.965
			c0.512,0.969,0.91,2.195,1.195,3.674C846.17,728.514,846.314,730.338,846.314,732.501z"/>
		<path fill="#212121" d="M1014.649,806.5c0,2.166-0.115,4.017-0.342,5.554c-0.229,1.539-0.599,2.82-1.11,3.846
			c-0.514,1.025-1.141,1.768-1.881,2.222c-0.742,0.457-1.623,0.684-2.648,0.684H878.102c-2.964,0-5.356-0.91-7.178-2.734
			c-1.824-1.821-2.734-4.727-2.734-8.716v-6.323c0-1.479,0.086-2.847,0.256-4.102c0.172-1.252,0.54-2.59,1.111-4.017
			c0.568-1.423,1.367-3.017,2.393-4.785c1.025-1.765,2.277-3.845,3.76-6.237l102.026-159.619h-100.83
			c-1.141,0-2.109-0.227-2.905-0.684c-0.799-0.454-1.453-1.167-1.965-2.136c-0.514-0.967-0.885-2.222-1.111-3.76
			c-0.229-1.538-0.342-3.333-0.342-5.383c0-2.278,0.112-4.214,0.342-5.811c0.227-1.594,0.598-2.905,1.111-3.931
			c0.512-1.025,1.166-1.765,1.965-2.222c0.796-0.454,1.765-0.684,2.905-0.684h123.047c3.076,0,5.495,0.884,7.263,2.649
			c1.766,1.768,2.649,4.473,2.649,8.118v6.665c0,1.824-0.115,3.447-0.342,4.871c-0.229,1.426-0.628,2.878-1.196,4.358
			c-0.571,1.482-1.341,3.076-2.307,4.785c-0.97,1.709-2.252,3.704-3.846,5.981L900.66,794.024h108.008
			c1.936,0,3.418,0.97,4.443,2.905C1014.137,798.868,1014.649,802.057,1014.649,806.5z"/>
	</g>
	<polygon fill="#AF2E38" points="1007,274.543 1106,369.684 1106,145 908,145 908,369.684 	"/>
	<path fill="#603813" d="M1199,1519H349.858c-59.009,0-109.762-13.501-146.772-39.044C165.306,1453.883,144.5,1416.964,144.5,1376
		s20.806-77.883,58.585-103.956c37.01-25.543,87.764-39.044,146.772-39.044H1199v49H349.858c-49.021,0-90.15,10.503-118.94,30.372
		c-24.479,16.895-37.418,38.896-37.418,63.628s12.939,46.733,37.418,63.628c28.79,19.869,69.919,30.372,118.94,30.372H1199V1519z"/>
	<path fill="#201C1E" d="M349.858,341c-59.009,0-109.762,13.501-146.772,39.044c-34.415,23.751-54.737,56.504-58.085,93.115v66
		c3.348-36.61,23.67-69.363,58.085-93.115C240.096,420.501,290.849,407,349.858,407H350v-66H349.858z"/>
	<path fill="#201C1E" d="M349.858,911c-59.009,0-109.762,13.501-146.772,39.044c-34.415,23.751-54.737,56.505-58.085,93.114v66
		c3.348-36.609,23.67-69.363,58.085-93.114C240.096,990.501,290.849,977,349.858,977H350v-66H349.858z"/>
	<path fill="#201C1E" d="M349.858,625c-59.009,0-109.762,13.501-146.772,39.044c-34.415,23.751-54.737,56.505-58.085,93.114v66
		c3.348-36.609,23.67-69.363,58.085-93.114C240.096,704.501,290.849,691,349.858,691H350v-66H349.858z"/>
	<rect x="350" y="145" fill="#603813" width="17" height="1088"/>
</g>
</svg>
