<?xml version="1.0" encoding="UTF-8" standalone="no"?>
<svg
        xmlns:dc="http://purl.org/dc/elements/1.1/"
        xmlns:cc="http://creativecommons.org/ns#"
        xmlns:rdf="http://www.w3.org/1999/02/22-rdf-syntax-ns#"
        xmlns="http://www.w3.org/2000/svg"
        xmlns:sodipodi="http://sodipodi.sourceforge.net/DTD/sodipodi-0.dtd"
        xmlns:inkscape="http://www.inkscape.org/namespaces/inkscape"
        version="1.1"
        id="Layer_1"
        x="0px"
        y="0px"
        width="600px"
        height="600px"
        viewBox="0 0 600 600"
        enable-background="new 0 0 600 600"
        xml:space="preserve"
        sodipodi:docname="pluginIcon.svg"
        inkscape:version="1.0beta1 (32d4812, 2019-09-19)"><metadata
   id="metadata839">
  <rdf:RDF>
    <cc:Work
   rdf:about="">
      <dc:format>image/svg+xml</dc:format>

      <dc:type
   rdf:resource="http://purl.org/dc/dcmitype/StillImage" />

    </cc:Work>

  </rdf:RDF>

</metadata>

<defs
   id="defs837" />

<sodipodi:namedview
   pagecolor="#ffffff"
   bordercolor="#666666"
   inkscape:document-rotation="0"
   borderopacity="1"
   objecttolerance="10"
   gridtolerance="10"
   guidetolerance="10"
   inkscape:pageopacity="0"
   inkscape:pageshadow="2"
   inkscape:window-width="1600"
   inkscape:window-height="907"
   id="namedview835"
   showgrid="false"
   inkscape:zoom="0.91177635"
   inkscape:cx="326.42397"
   inkscape:cy="218.88871"
   inkscape:window-x="0"
   inkscape:window-y="25"
   inkscape:window-maximized="0"
   inkscape:current-layer="Layer_1" />

<g
   id="g30"
   transform="matrix(0.96966017,0,0,0.96966017,319.74969,12.548046)">
  <path
     style="stroke-width:1"
     inkscape:connector-curvature="0"
     d="M 131.14544,-0.29425107 C 59.653425,-0.29425107 1.7954265,57.72375 1.7954265,129.41375 c 0,63.11899 45.1199985,115.564 104.6650035,127.23199 v 37.13001 c 77.413,-11.70301 145.958,-73.32401 151.073,-154.21301 3.07801,-48.688991 -21.13,-98.39399 -61.95999,-122.529991 -2.338,-1.381 -4.713,-2.753 -7.159,-3.96 -2.492,-1.23 -5.051,-2.427999 -7.652,-3.4660003 -0.826,-0.346 -1.635,-0.66 -2.469,-0.99 -2.271,-0.8399998 -4.563,-1.7869998 -6.911,-2.4749998 -12.658,-4.182999 -26.188,-6.43599997 -40.237,-6.43599997 z"
     fill="#00A818"
     id="path16" />
</g>
</svg>
