<?xml version="1.0" encoding="UTF-8" standalone="no"?>
<svg
        xmlns="http://www.w3.org/2000/svg"
        version="1.1"
        id="Layer_1"
        x="0px"
        y="0px"
        width="600px"
        height="600px"
        viewBox="0 0 600 600"
        enable-background="new 0 0 600 600"
        xml:space="preserve">

<!-- Cucumber+ icon, verbatim: pale blue disc -->
<ellipse
   style="fill:#9bb2d4;fill-opacity:0.560784;stroke-width:2.17962"
   id="path849"
   cy="339.87869"
   cx="286.55768"
   rx="254.19655"
   ry="240.27412" />

<!-- Python centre: official Python logo (two interlocking snakes), uniform scale -->
<g transform="translate(133,186) scale(1.2)" fill-rule="evenodd">
  <path fill="#3776AB"
        d="M126.916.072c-64.832 0-60.784 28.115-60.784 28.115l.072 29.128h61.868v8.745H41.631S.072 61.355.072 126.776c0 65.42 36.276 63.097 36.276 63.097h21.61v-30.356s-1.165-36.276 35.698-36.276h61.4s34.515.557 34.515-33.358V33.557S232.485.072 126.916.072zM92.802 19.66a11.12 11.12 0 0 1 11.13 11.13 11.12 11.12 0 0 1-11.13 11.13 11.12 11.12 0 0 1-11.13-11.13 11.12 11.12 0 0 1 11.13-11.13z"/>
  <path fill="#FFD43B"
        d="M128.757 254.126c64.832 0 60.784-28.115 60.784-28.115l-.072-29.128h-61.868v-8.745h88.441s41.559 4.717 41.559-60.704c0-65.42-36.276-63.097-36.276-63.097h-21.61v30.356s1.165 36.276-35.698 36.276h-61.4s-34.515-.557-34.515 33.358v56.326s-5.238 33.485 100.331 33.485zM162.871 234.538a11.12 11.12 0 0 1-11.13-11.13 11.12 11.12 0 0 1 11.13-11.13 11.12 11.12 0 0 1 11.13 11.13 11.12 11.12 0 0 1-11.13 11.13z"/>
</g>

<!-- Cucumber+ green "C", verbatim from the Cucumber+ icon -->
<g
   id="g30"
   transform="matrix(0.96966017,0,0,0.96966017,319.74969,12.548046)">
  <path
     style="stroke-width:1"
     d="M 131.14544,-0.29425107 C 59.653425,-0.29425107 1.7954265,57.72375 1.7954265,129.41375 c 0,63.11899 45.1199985,115.564 104.6650035,127.23199 v 37.13001 c 77.413,-11.70301 145.958,-73.32401 151.073,-154.21301 3.07801,-48.688991 -21.13,-98.39399 -61.95999,-122.529991 -2.338,-1.381 -4.713,-2.753 -7.159,-3.96 -2.492,-1.23 -5.051,-2.427999 -7.652,-3.4660003 -0.826,-0.346 -1.635,-0.66 -2.469,-0.99 -2.271,-0.8399998 -4.563,-1.7869998 -6.911,-2.4749998 -12.658,-4.182999 -26.188,-6.43599997 -40.237,-6.43599997 z"
     fill="#00A818"
     id="path16" />
</g>
</svg>
