<?xml version="1.0" encoding="utf-8"?>
<svg viewBox="0 0 600 600" xmlns="http://www.w3.org/2000/svg">
  <ellipse ry="235.27412" rx="245.19655" cx="286.55768" cy="339.87869" id="path849"
           style="fill-opacity: 0.560784; fill: none; stroke-width: 50px; paint-order: fill; stroke:#6D707D;"/>
  <g id="g30"
     transform="matrix(0.96966017,0,0,0.96966017,319.74969,12.548046)">
    <path
            style="stroke-width:1"
            d="M 131.14544,-0.29425107 C 59.653425,-0.29425107 1.7954265,57.72375 1.7954265,129.41375 c 0,63.11899 45.1199985,115.564 104.6650035,127.23199 v 37.13001 c 77.413,-11.70301 145.958,-73.32401 151.073,-154.21301 3.07801,-48.688991 -21.13,-98.39399 -61.95999,-122.529991 -2.338,-1.381 -4.713,-2.753 -7.159,-3.96 -2.492,-1.23 -5.051,-2.427999 -7.652,-3.4660003 -0.826,-0.346 -1.635,-0.66 -2.469,-0.99 -2.271,-0.8399998 -4.563,-1.7869998 -6.911,-2.4749998 -12.658,-4.182999 -26.188,-6.43599997 -40.237,-6.43599997 z"
            fill="#1280F5"
            id="path16"/>
  </g>

  <g id="g60"
     transform="matrix(6.5, 0, 0, 6.5, 290, 0)"
     fill="#FFFFFF">
    <circle class="a" cx="23.91" cy="21.46" r="3.5"/>
    <circle class="a" cx="33.65" cy="21.46" r="3.5"/>
    <circle class="a" cx="14.18" cy="21.46" r="3.5"/>
  </g>
</svg>